<?xml version="1.0" standalone="no"?>
<!DOCTYPE svg PUBLIC "-//W3C//DTD SVG 20010904//EN"
 "http://www.w3.org/TR/2001/REC-SVG-20010904/DTD/svg10.dtd">
<svg version="1.0" xmlns="http://www.w3.org/2000/svg"
 width="945.000000pt" height="100.000000pt" viewBox="0 0 945.000000 100.000000"
 preserveAspectRatio="xMidYMid meet">

<g transform="translate(0.000000,100.000000) scale(0.100000,-0.100000)"
fill="#000000" stroke="none">
<path d="M27 972 c-9 -2 -17 -8 -17 -13 0 -15 88 -127 134 -172 71 -68 81 -71
278 -71 108 -1 181 -5 187 -11 7 -7 12 -135 13 -355 l3 -345 125 0 125 0 3
352 2 353 23 4 c12 3 99 4 192 3 194 -2 200 0 286 90 52 53 123 152 116 160
-6 5 -1443 10 -1470 5z"/>
<path d="M2270 966 c-12 -12 98 -155 156 -202 60 -50 68 -50 564 -48 467 2
445 -3 535 100 56 65 116 146 111 151 -8 8 -1358 7 -1366 -1z"/>
<path d="M4307 972 c-15 -3 -17 -29 -17 -272 0 -211 3 -270 13 -279 10 -7 163
-12 508 -13 l494 -3 3 -72 c2 -40 -1 -73 -5 -73 -4 -1 -179 -1 -389 -1 -321
-1 -385 -3 -412 -16 -37 -18 -172 -157 -172 -177 0 -8 -7 -16 -15 -20 -8 -3
-15 -15 -15 -26 0 -20 3 -20 630 -20 497 0 630 3 631 13 8 69 4 635 -4 645 -7
9 -120 12 -504 12 l-494 0 3 23 3 22 359 2 c197 0 374 4 393 8 38 7 116 79
183 170 39 52 48 75 33 75 -147 3 -1215 4 -1226 2z"/>
<path d="M6339 972 c-12 -2 -14 -80 -14 -485 l0 -482 474 -3 c450 -2 476 -1
511 17 42 22 103 75 128 112 9 14 32 48 50 75 l33 49 -468 5 -468 5 0 352 0
352 -116 3 c-64 2 -123 2 -130 0z"/>
<path d="M8263 972 c-25 -2 -43 -8 -43 -15 1 -23 126 -171 174 -206 l48 -34
398 -1 398 0 40 28 c48 33 96 84 140 148 53 78 53 78 -115 78 -82 0 -339 1
-573 3 -234 1 -444 1 -467 -1z"/>
<path d="M2270 605 c0 -22 102 -155 145 -190 79 -63 50 -60 530 -61 493 -1
463 -5 548 75 51 48 137 160 137 180 0 8 -184 11 -680 11 -600 0 -680 -2 -680
-15z"/>
<path d="M8238 593 c-2 -5 -4 -138 -4 -298 l1 -290 125 0 125 0 6 200 c3 110
6 201 7 203 1 1 156 1 345 0 l342 -3 3 -202 2 -203 125 0 124 0 3 293 c2 160
2 295 0 300 -2 4 -273 7 -602 7 -329 0 -600 -3 -602 -7z"/>
<path d="M2265 251 c-3 -5 1 -15 8 -23 7 -7 18 -20 23 -29 16 -29 78 -102 114
-136 70 -66 53 -64 553 -61 l454 3 39 30 c45 34 41 29 121 133 34 44 59 82 56
86 -10 10 -1361 7 -1368 -3z"/>
</g>
</svg>
