<?xml version="1.0" standalone="no"?>
<!DOCTYPE svg PUBLIC "-//W3C//DTD SVG 20010904//EN"
 "http://www.w3.org/TR/2001/REC-SVG-20010904/DTD/svg10.dtd">
<svg version="1.0" xmlns="http://www.w3.org/2000/svg"
 width="104.000000pt" height="104.000000pt" viewBox="0 0 104.000000 104.000000"
 preserveAspectRatio="xMidYMid meet">

<g transform="translate(0.000000,104.000000) scale(0.100000,-0.100000)"
fill="#000000" stroke="none">
<path d="M425 1010 c-251 -54 -422 -278 -402 -525 12 -134 66 -245 163 -334
168 -154 417 -172 612 -44 154 102 242 299 213 481 -37 242 -226 415 -465 427
-45 2 -99 0 -121 -5z m204 -81 c151 -34 287 -187 309 -348 15 -110 -13 -228
-74 -308 l-26 -34 -28 40 c-35 48 -80 83 -145 112 -72 33 -218 33 -290 0 -65
-29 -110 -64 -145 -112 l-28 -40 -26 34 c-120 157 -101 401 42 544 110 110
251 148 411 112z m0 -606 c50 -18 115 -72 137 -114 14 -28 13 -29 -29 -53 -73
-43 -126 -57 -217 -57 -91 0 -144 14 -217 57 -42 24 -43 25 -29 52 8 15 29 41
48 58 82 78 192 98 307 57z"/>
<path d="M442 799 c-116 -58 -124 -224 -15 -299 51 -35 135 -35 186 0 110 75
100 243 -19 300 -52 26 -98 25 -152 -1z m149 -88 c51 -52 33 -128 -37 -157
-29 -12 -39 -12 -68 0 -70 29 -88 105 -37 157 41 41 101 41 142 0z"/>
</g>
</svg>
