<?xml version="1.0" standalone="no"?>
<!DOCTYPE svg PUBLIC "-//W3C//DTD SVG 20010904//EN"
 "http://www.w3.org/TR/2001/REC-SVG-20010904/DTD/svg10.dtd">
<svg version="1.0" xmlns="http://www.w3.org/2000/svg"
 width="102.000000pt" height="102.000000pt" viewBox="0 0 102.000000 102.000000"
 preserveAspectRatio="xMidYMid meet">

<g transform="translate(0.000000,102.000000) scale(0.100000,-0.100000)"
fill="#000000" stroke="none">
<path d="M425 980 c-251 -54 -422 -278 -402 -525 16 -184 121 -337 285 -417
62 -30 76 -33 190 -36 109 -4 131 -1 185 18 226 82 364 308 328 538 -37 242
-226 415 -465 427 -45 2 -99 0 -121 -5z m219 -85 c133 -40 240 -149 282 -285
18 -59 18 -182 -1 -244 -54 -176 -219 -298 -405 -298 -236 0 -422 186 -422
422 0 81 15 139 53 206 52 92 135 162 232 195 65 22 194 24 261 4z"/>
<path d="M463 780 c-63 -15 -117 -63 -133 -119 -19 -69 41 -85 72 -19 24 50
59 72 119 72 61 0 100 -27 113 -77 13 -50 -5 -86 -66 -133 -60 -45 -96 -111
-78 -144 6 -11 15 -20 21 -20 20 0 49 21 49 35 0 8 33 48 74 88 66 64 75 77
81 120 21 139 -100 233 -252 197z"/>
<path d="M487 272 c-22 -24 -21 -45 1 -65 24 -22 45 -21 65 1 22 24 21 45 -1
65 -24 22 -45 21 -65 -1z"/>
</g>
</svg>
