<?xml version="1.0" standalone="no"?>
<!DOCTYPE svg PUBLIC "-//W3C//DTD SVG 20010904//EN"
 "http://www.w3.org/TR/2001/REC-SVG-20010904/DTD/svg10.dtd">
<svg version="1.0" xmlns="http://www.w3.org/2000/svg"
 width="108.000000pt" height="106.000000pt" viewBox="0 0 108.000000 106.000000"
 preserveAspectRatio="xMidYMid meet">

<g transform="translate(0.000000,106.000000) scale(0.100000,-0.100000)"
fill="#000000" stroke="none">
<path d="M465 1000 c-302 -65 -475 -366 -375 -654 132 -385 660 -452 883 -113
213 324 -3 753 -387 772 -45 2 -99 0 -121 -5z m152 -112 c36 -37 70 -110 79
-169 l7 -39 -143 0 -143 0 7 39 c15 98 85 201 136 201 16 0 38 -12 57 -32z
m-219 -20 c-12 -24 -31 -74 -43 -113 l-22 -70 -76 -3 c-61 -2 -77 0 -77 11 0
17 46 81 90 125 30 31 125 92 143 92 4 0 -2 -19 -15 -42z m368 12 c56 -32 103
-74 146 -134 44 -61 40 -66 -50 -66 l-79 0 -12 53 c-6 29 -25 81 -41 115 -16
34 -26 62 -22 62 4 0 30 -13 58 -30z m-440 -370 l0 -100 -87 0 c-50 0 -91 4
-94 10 -4 6 -7 46 -7 90 0 44 3 84 7 90 3 6 44 10 94 10 l87 0 0 -100z m394 0
l0 -100 -160 0 -160 0 0 100 0 100 160 0 160 0 0 -100z m260 47 c3 -26 3 -68
0 -95 l-5 -47 -91 -3 -90 -3 0 101 0 101 90 -3 91 -3 5 -48z m-625 -292 c12
-38 31 -89 43 -112 13 -24 19 -43 14 -43 -5 0 -37 17 -73 39 -43 26 -80 59
-111 100 -67 87 -65 92 29 89 l76 -3 22 -70z m341 36 c-15 -98 -85 -201 -136
-201 -51 0 -120 101 -136 198 l-7 42 143 0 143 0 -7 -39z m244 25 c0 -33 -96
-139 -159 -177 -36 -22 -68 -39 -73 -39 -5 0 3 22 16 48 13 26 32 75 41 107
10 33 19 63 22 68 2 4 38 7 79 7 58 0 74 -3 74 -14z"/>
</g>
</svg>
